<?xml version="1.0"?>
<svg xmlns="http://www.w3.org/2000/svg" id="Livello_1" data-name="Livello 1" viewBox="0 0 866.95 348.02">
  <path d="M366.59,50.4h-146A45.56,45.56,0,0,0,175,96v81.4h53.4V125.73h124.2v51.63h59.54V96A45.56,45.56,0,0,0,366.59,50.4Zm-14,45.68H228.42V72.6h124.2Z"/>
  <path d="M636.16,194.08v76.31H599.57V194.08H582v82.07A16.86,16.86,0,0,0,598.89,293H635a16.86,16.86,0,0,0,16.86-16.86V194.08Z"/>
  <rect x="301.17" y="279.25" width="35.98" height="18.76" transform="translate(30.53 607.78) rotate(-90)"/>
  <polygon points="803.18 194.08 730.01 194.08 730.01 209.67 755.83 209.67 755.83 265.28 777.36 265.28 777.36 209.67 803.18 209.67 803.18 194.08"/>
  <path d="M336,196.39v52.34H300V196.39H283.92v52.19A22.06,22.06,0,0,0,306,270.64h24.58a22.06,22.06,0,0,0,22.06-22.06V196.39Z"/>
  <path d="M666.5,89.7v-8A31.34,31.34,0,0,0,635.16,50.4H437.27V180.57H639.12a27.38,27.38,0,0,0,27.38-27.39v-8a31.34,31.34,0,0,0-20-29.19A27.37,27.37,0,0,0,666.5,89.7Zm-49.43,69.86H492.88V136.08H617.07Zm0-63.48H492.88V72.6H617.07Z"/>
  <path d="M111.74,236.61a19.19,19.19,0,0,0,14.11-18.46,20.54,20.54,0,0,0-20.53-20.54H60.4v77.65h46.2A19.24,19.24,0,0,0,125.85,256,20.47,20.47,0,0,0,111.74,236.61Zm0,26.12H76.28v-14h35.46Zm0-37.87H76.28v-14h35.46Z"/>
  <path d="M575.59,230.35V214.61a20.53,20.53,0,0,0-20.53-20.53H510.14V302.45h46.2a19.24,19.24,0,0,0,19.25-19.24V267.47a20.51,20.51,0,0,0-12.89-19A19.2,19.2,0,0,0,575.59,230.35ZM561.48,285H526V265.42h35.46Zm0-52.85H526V212.56h35.46Z"/>
  <path d="M179.9,196.39H153.56a19.3,19.3,0,0,0-19.29,19.3v54.08a19.29,19.29,0,0,0,19.29,19.29H179.9a19.3,19.3,0,0,0,19.3-19.29V215.69A19.3,19.3,0,0,0,179.9,196.39Zm4.56,70.25H149V217.86h35.46Z"/>
  <path d="M484.43,194.08h-32.3a19.29,19.29,0,0,0-19.29,19.29v73.95a19.3,19.3,0,0,0,19.29,19.3h32.3a19.3,19.3,0,0,0,19.29-19.3V213.37A19.29,19.29,0,0,0,484.43,194.08Zm3.21,85.3H448.92V220.15h38.72Z"/>
  <path d="M257.31,196.39H211.68v99.72h45.63a19.3,19.3,0,0,0,19.3-19.3V215.69A19.3,19.3,0,0,0,257.31,196.39Zm2.36,74.25H224.21V221.86h35.46Z"/>
  <path d="M405.65,260.66a19.24,19.24,0,0,0,19.24-19.25V216.93a20.54,20.54,0,0,0-20.53-20.54H359.44V306.62h25.18v-46l31.89,49.15h20.76Zm-30.33-20.25V217.79h35.46v22.62Z"/>
  <path d="M726.91,243.5l-30.43-28.14h30.67V194.08H676c-7,0-12.75,6.12-12.75,13.67a13.73,13.73,0,0,0,7.79,12.6l-.06.07,40.32,37.29H657.07v21.67h56.37c12.14,0,17.85-4.87,20.41-10.83C740.27,253.63,726.91,243.5,726.91,243.5Z"/>
  <path d="M436.3,348c-118.68,0-255.41-14.27-400.77-56.32C14.61,285.64,0,265.9,0,243.69V124.31A49.84,49.84,0,0,1,29.79,78.4h0c90.75-39.28,417.09-155.3,806.27.86C854.82,86.79,867,105,867,125.64V244.75a49.56,49.56,0,0,1-34.82,47.78C776.27,309.8,630.47,348,436.3,348ZM34.65,89.62a37.6,37.6,0,0,0-22.43,34.69V243.69c0,16.81,11,31.72,26.71,36.27,379.92,109.92,700.41,28.47,789.58.89a37.39,37.39,0,0,0,26.22-36.1V125.64c0-15.39-9.33-29.47-23.22-35-384.8-154.4-707.21-39.79-796.86-1Z"/>
</svg>
